<?xml version="1.0" encoding="utf-8"?>
<!-- Generator: Adobe Illustrator 24.0.2, SVG Export Plug-In . SVG Version: 6.00 Build 0)  -->
<svg version="1.1" id="Calque_1" xmlns="http://www.w3.org/2000/svg" xmlns:xlink="http://www.w3.org/1999/xlink" x="0px" y="0px"
	 viewBox="0 0 451.8 215.2" style="enable-background:new 0 0 451.8 215.2;" xml:space="preserve">
<style type="text/css">
	.st0{fill:#303042;}
	.st1{fill:#73C7D3;}
</style>
<g>
	<path class="st0" d="M258.2,177.5v15H255v-20.9h2.7l12,15.3v-15.2h3.2v20.9h-2.8L258.2,177.5z"/>
	<path class="st0" d="M285.3,192.6c-1.7,0-3.1-0.3-4.2-0.9c-1.1-0.6-2.1-1.4-2.8-2.3c-0.7-1-1.2-2.1-1.5-3.4
		c-0.3-1.3-0.5-2.6-0.5-3.9v-10.6h3.2v10.6c0,1,0.1,1.9,0.3,2.8c0.2,0.9,0.5,1.7,1,2.4c0.4,0.7,1,1.3,1.8,1.7
		c0.7,0.4,1.7,0.6,2.8,0.6c1.1,0,2-0.2,2.8-0.6c0.7-0.4,1.3-1,1.8-1.7c0.4-0.7,0.7-1.5,0.9-2.4c0.2-0.9,0.3-1.8,0.3-2.8v-10.6h3.2
		v10.6c0,1.4-0.2,2.8-0.5,4c-0.3,1.3-0.9,2.4-1.6,3.3c-0.7,1-1.6,1.7-2.8,2.3C288.3,192.3,286.9,192.6,285.3,192.6z"/>
	<path class="st0" d="M315.4,192.5v-15.1l-6.3,11.5h-1.9l-6.3-11.5v15.1h-3.2v-20.9h3.5l7,12.9l7-12.9h3.5v20.9H315.4z"/>
	<path class="st0" d="M336.7,189.6v2.9h-14.3v-20.9h14.1v2.9h-10.9v6h9.4v2.7h-9.4v6.5H336.7z"/>
	<path class="st0" d="M339.2,192.5v-20.9h9.1c0.9,0,1.8,0.2,2.6,0.6c0.8,0.4,1.5,0.9,2,1.6c0.6,0.6,1,1.4,1.4,2.2
		c0.3,0.8,0.5,1.6,0.5,2.5c0,0.9-0.2,1.8-0.5,2.7c-0.3,0.8-0.8,1.6-1.4,2.2c-0.6,0.6-1.3,1.1-2.2,1.3l5,8h-3.7l-4.5-7.3h-5v7.3
		H339.2z M342.4,182.3h5.8c0.6,0,1.2-0.2,1.7-0.5c0.5-0.4,0.9-0.8,1.1-1.4c0.3-0.6,0.4-1.3,0.4-2c0-0.7-0.2-1.4-0.5-2
		c-0.3-0.6-0.7-1.1-1.2-1.4c-0.5-0.3-1.1-0.5-1.7-0.5h-5.7V182.3z"/>
	<path class="st0" d="M357.6,192.5v-20.9h3.2v20.9H357.6z"/>
	<path class="st0" d="M373.2,192.6c-1.5,0-2.8-0.3-4-0.9c-1.2-0.6-2.3-1.4-3.2-2.4c-0.9-1-1.6-2.1-2.1-3.4c-0.5-1.3-0.7-2.6-0.7-3.9
		c0-1.4,0.3-2.7,0.8-4c0.5-1.3,1.2-2.4,2.1-3.4c0.9-1,2-1.8,3.2-2.4c1.2-0.6,2.6-0.9,4-0.9c1.5,0,2.9,0.3,4.1,0.9
		c1.2,0.6,2.3,1.4,3.1,2.4c0.9,1,1.5,2.2,2,3.4c0.5,1.3,0.7,2.6,0.7,3.9c0,1.4-0.2,2.7-0.7,4c-0.5,1.3-1.2,2.4-2.1,3.4
		c-0.9,1-2,1.8-3.2,2.3C376,192.3,374.6,192.6,373.2,192.6z M373.3,189.7c1.1,0,2-0.2,2.8-0.7c0.8-0.4,1.5-1,2.1-1.8
		c0.6-0.7,1-1.6,1.3-2.5c0.3-0.9,0.5-1.8,0.5-2.8c0-1-0.2-1.9-0.5-2.9c-0.3-0.9-0.8-1.8-1.4-2.5c-0.6-0.7-1.3-1.3-2.1-1.7
		c-0.8-0.4-1.7-0.6-2.7-0.6c-1.1,0-2,0.2-2.8,0.7c-0.8,0.4-1.5,1-2.1,1.8c-0.6,0.7-1,1.6-1.3,2.5s-0.5,1.8-0.5,2.8
		c0,1,0.2,1.9,0.5,2.9c0.3,0.9,0.8,1.8,1.4,2.5c0.6,0.7,1.3,1.3,2.1,1.7C371.3,189.5,372.2,189.7,373.3,189.7z M373.8,185.2h3.1
		l6.3,7.2H380L373.8,185.2z"/>
	<path class="st0" d="M394.3,192.6c-1.7,0-3.1-0.3-4.2-0.9c-1.1-0.6-2.1-1.4-2.8-2.3c-0.7-1-1.2-2.1-1.5-3.4
		c-0.3-1.3-0.5-2.6-0.5-3.9v-10.6h3.2v10.6c0,1,0.1,1.9,0.3,2.8c0.2,0.9,0.5,1.7,1,2.4c0.4,0.7,1,1.3,1.8,1.7
		c0.7,0.4,1.7,0.6,2.8,0.6c1.1,0,2-0.2,2.8-0.6c0.7-0.4,1.3-1,1.8-1.7c0.4-0.7,0.7-1.5,0.9-2.4c0.2-0.9,0.3-1.8,0.3-2.8v-10.6h3.2
		v10.6c0,1.4-0.2,2.8-0.5,4c-0.3,1.3-0.9,2.4-1.6,3.3c-0.7,1-1.6,1.7-2.8,2.3C397.4,192.3,396,192.6,394.3,192.6z"/>
	<path class="st0" d="M421.2,189.6v2.9h-14.3v-20.9h14.1v2.9H410v6h9.4v2.7H410v6.5H421.2z"/>
	<path class="st0" d="M435.9,176.4c-0.2-0.2-0.5-0.4-0.9-0.7c-0.4-0.2-0.8-0.5-1.3-0.7c-0.5-0.2-1-0.4-1.6-0.5
		c-0.6-0.1-1.2-0.2-1.8-0.2c-1.4,0-2.5,0.3-3.1,0.8c-0.7,0.5-1,1.2-1,2.2c0,0.7,0.2,1.2,0.6,1.6s1,0.7,1.7,1
		c0.8,0.3,1.7,0.5,2.9,0.8c1.4,0.3,2.7,0.7,3.7,1.2s1.8,1.1,2.4,1.8c0.6,0.8,0.8,1.8,0.8,3c0,1.1-0.2,2-0.6,2.7
		c-0.4,0.8-0.9,1.4-1.7,1.8s-1.5,0.8-2.4,1.1c-0.9,0.2-1.9,0.4-3,0.4c-1,0-2.1-0.1-3.1-0.4c-1-0.2-2-0.6-2.9-1s-1.8-0.9-2.6-1.5
		l1.5-2.8c0.3,0.3,0.6,0.6,1.1,0.9c0.5,0.3,1,0.6,1.7,0.9c0.6,0.3,1.3,0.5,2.1,0.7c0.8,0.2,1.5,0.3,2.3,0.3c1.3,0,2.4-0.2,3.1-0.7
		c0.7-0.5,1.1-1.2,1.1-2c0-0.7-0.2-1.3-0.7-1.7c-0.5-0.4-1.1-0.8-2-1.1c-0.9-0.3-1.9-0.6-3.1-0.9c-1.4-0.4-2.5-0.8-3.5-1.2
		s-1.6-1-2.1-1.7s-0.7-1.6-0.7-2.7c0-1.4,0.3-2.5,1-3.5c0.7-0.9,1.6-1.7,2.7-2.1c1.2-0.5,2.4-0.7,3.9-0.7c0.9,0,1.8,0.1,2.7,0.3
		c0.8,0.2,1.6,0.5,2.4,0.8c0.7,0.4,1.4,0.8,2,1.2L435.9,176.4z"/>
</g>
<g>
	<path class="st0" d="M255,163.5v-29.3h10.3c3.2,0,5.8,0.7,7.9,2c2.1,1.3,3.7,3.1,4.8,5.3c1,2.2,1.6,4.7,1.6,7.4
		c0,3-0.6,5.6-1.7,7.8c-1.2,2.2-2.8,3.9-5,5.1c-2.1,1.2-4.7,1.8-7.6,1.8H255z M275,148.8c0-2.1-0.4-3.9-1.1-5.5
		c-0.8-1.6-1.8-2.8-3.3-3.8c-1.4-0.9-3.2-1.4-5.3-1.4h-5.8v21.3h5.8c2.1,0,3.9-0.5,5.3-1.4c1.4-0.9,2.5-2.2,3.3-3.8
		C274.7,152.6,275,150.8,275,148.8z"/>
	<path class="st0" d="M279.7,143.3l0.9-4.9h-1.4v-5h4.3v5.1l-1.3,4.9H279.7z"/>
	<path class="st0" d="M299.8,163.7c-2.3,0-4.3-0.4-5.9-1.2c-1.6-0.8-2.9-1.9-3.9-3.3c-1-1.4-1.7-3-2.2-4.7c-0.5-1.8-0.7-3.6-0.7-5.4
		v-14.9h4.5V149c0,1.3,0.1,2.7,0.4,3.9c0.3,1.3,0.7,2.4,1.3,3.4c0.6,1,1.4,1.8,2.5,2.4c1,0.6,2.3,0.9,3.9,0.9c1.6,0,2.9-0.3,3.9-0.9
		c1-0.6,1.8-1.4,2.5-2.4c0.6-1,1-2.1,1.3-3.4c0.3-1.3,0.4-2.6,0.4-3.9v-14.9h4.5V149c0,2-0.2,3.9-0.7,5.7c-0.5,1.8-1.2,3.3-2.2,4.7
		c-1,1.3-2.3,2.4-3.9,3.2C304,163.3,302,163.7,299.8,163.7z"/>
	<path class="st0" d="M334.5,141c-0.2-0.3-0.6-0.6-1.2-1c-0.6-0.3-1.2-0.7-1.9-1c-0.7-0.3-1.5-0.6-2.3-0.8c-0.8-0.2-1.7-0.3-2.6-0.3
		c-2,0-3.4,0.4-4.4,1.1c-0.9,0.7-1.4,1.7-1.4,3.1c0,0.9,0.3,1.7,0.8,2.2c0.5,0.5,1.3,1,2.4,1.4c1.1,0.4,2.4,0.7,4,1.2
		c2,0.5,3.7,1,5.2,1.7c1.5,0.6,2.6,1.5,3.4,2.5c0.8,1.1,1.2,2.5,1.2,4.3c0,1.5-0.3,2.7-0.8,3.8c-0.6,1.1-1.3,1.9-2.3,2.6
		c-1,0.7-2.1,1.2-3.4,1.5c-1.3,0.3-2.7,0.5-4.2,0.5c-1.5,0-2.9-0.2-4.3-0.5c-1.4-0.3-2.8-0.8-4.1-1.4c-1.3-0.6-2.5-1.3-3.6-2.1
		l2.1-3.9c0.4,0.4,0.9,0.8,1.5,1.2c0.7,0.4,1.5,0.8,2.4,1.2c0.9,0.4,1.9,0.7,2.9,1c1.1,0.3,2.1,0.4,3.2,0.4c1.9,0,3.3-0.3,4.3-1
		c1-0.7,1.5-1.6,1.5-2.9c0-1-0.3-1.8-0.9-2.4s-1.6-1.1-2.8-1.5c-1.2-0.4-2.7-0.8-4.4-1.3c-1.9-0.5-3.5-1.1-4.8-1.7
		c-1.3-0.6-2.3-1.4-2.9-2.4s-1-2.2-1-3.7c0-1.9,0.5-3.5,1.4-4.8c0.9-1.3,2.2-2.3,3.8-3s3.4-1,5.4-1c1.3,0,2.6,0.1,3.8,0.4
		c1.2,0.3,2.3,0.7,3.3,1.2c1,0.5,2,1.1,2.8,1.7L334.5,141z"/>
	<path class="st0" d="M348.8,134.2h4.2l11.5,29.3h-4.8l-2.9-8H345l-2.9,8h-4.7L348.8,134.2z M355.7,152.1l-4.7-12.9l-4.7,12.9H355.7
		z"/>
	<path class="st0" d="M377.5,163.7c-1.9,0-3.7-0.4-5.4-1.2c-1.7-0.8-3.1-1.9-4.4-3.3c-1.3-1.4-2.2-3-2.9-4.8
		c-0.7-1.8-1.1-3.7-1.1-5.7c0-2,0.4-3.9,1.1-5.6c0.7-1.8,1.7-3.3,2.9-4.7c1.3-1.4,2.7-2.4,4.4-3.2c1.7-0.8,3.5-1.2,5.5-1.2
		c2.8,0,5.2,0.6,7.1,1.8c1.9,1.2,3.3,2.7,4.3,4.6l-3.4,2.5c-0.8-1.6-1.9-2.8-3.4-3.6c-1.4-0.8-3-1.2-4.6-1.2c-1.4,0-2.7,0.3-3.8,0.9
		c-1.1,0.6-2.1,1.4-2.9,2.4c-0.8,1-1.5,2.2-1.9,3.4c-0.4,1.3-0.6,2.7-0.6,4.1c0,1.5,0.2,2.9,0.7,4.2c0.5,1.3,1.2,2.4,2,3.4
		c0.9,1,1.9,1.8,3,2.3c1.2,0.6,2.4,0.9,3.8,0.9c1.6,0,3.2-0.4,4.6-1.2c1.5-0.8,2.8-2.1,4-3.7v4.6C384,162.2,381,163.7,377.5,163.7z
		 M386.2,152H380v-3.4h9.9v14.8h-3.8V152z"/>
	<path class="st0" d="M413.9,159.5v4h-20.1v-29.3h19.7v4h-15.2v8.5h13.2v3.8h-13.2v9.1H413.9z"/>
	<path class="st0" d="M434.6,141c-0.2-0.3-0.6-0.6-1.2-1c-0.6-0.3-1.2-0.7-1.9-1c-0.7-0.3-1.5-0.6-2.3-0.8c-0.8-0.2-1.7-0.3-2.6-0.3
		c-2,0-3.4,0.4-4.4,1.1c-0.9,0.7-1.4,1.7-1.4,3.1c0,0.9,0.3,1.7,0.8,2.2c0.5,0.5,1.3,1,2.4,1.4c1.1,0.4,2.4,0.7,4,1.2
		c2,0.5,3.7,1,5.2,1.7c1.5,0.6,2.6,1.5,3.4,2.5c0.8,1.1,1.2,2.5,1.2,4.3c0,1.5-0.3,2.7-0.8,3.8c-0.6,1.1-1.3,1.9-2.3,2.6
		c-1,0.7-2.1,1.2-3.4,1.5c-1.3,0.3-2.7,0.5-4.2,0.5c-1.5,0-2.9-0.2-4.3-0.5c-1.4-0.3-2.8-0.8-4.1-1.4c-1.3-0.6-2.5-1.3-3.6-2.1
		l2.1-3.9c0.4,0.4,0.9,0.8,1.5,1.2c0.7,0.4,1.5,0.8,2.4,1.2c0.9,0.4,1.9,0.7,2.9,1c1.1,0.3,2.1,0.4,3.2,0.4c1.9,0,3.3-0.3,4.3-1
		c1-0.7,1.5-1.6,1.5-2.9c0-1-0.3-1.8-0.9-2.4s-1.6-1.1-2.8-1.5c-1.2-0.4-2.7-0.8-4.4-1.3c-1.9-0.5-3.5-1.1-4.8-1.7
		c-1.3-0.6-2.3-1.4-2.9-2.4s-1-2.2-1-3.7c0-1.9,0.5-3.5,1.4-4.8c0.9-1.3,2.2-2.3,3.8-3s3.4-1,5.4-1c1.3,0,2.6,0.1,3.8,0.4
		c1.2,0.3,2.3,0.7,3.3,1.2c1,0.5,2,1.1,2.8,1.7L434.6,141z"/>
</g>
<g>
	<path class="st0" d="M255.7,91.9V22.4h46.1v9.5h-35.4v21.1h29.8v8.8h-29.8v30.2H255.7z"/>
	<path class="st0" d="M337.8,92.4c-5.5,0-10.2-0.9-14-2.8c-3.8-1.9-6.9-4.5-9.2-7.8c-2.3-3.3-4.1-7-5.1-11.2
		c-1.1-4.2-1.6-8.5-1.6-12.9V22.4h10.8v35.3c0,3.2,0.3,6.3,1,9.3c0.7,3,1.7,5.7,3.2,8c1.5,2.4,3.4,4.2,5.9,5.7
		c2.4,1.4,5.5,2.2,9.2,2.2c3.7,0,6.8-0.7,9.3-2.2c2.4-1.4,4.4-3.3,5.8-5.7c1.4-2.4,2.5-5.1,3.1-8.1c0.7-3,1-6.1,1-9.2V22.4h10.8
		v35.3c0,4.8-0.6,9.2-1.7,13.4c-1.1,4.2-2.9,7.9-5.2,11.1c-2.4,3.2-5.5,5.7-9.3,7.5C347.9,91.5,343.3,92.4,337.8,92.4z"/>
	<path class="st0" d="M389.9,42.3v49.6h-10.7V22.4h8.8l39.8,50.7V22.5h10.7v69.4h-9.3L389.9,42.3z"/>
</g>
<g>
	<path class="st0" d="M255.1,125.8v-21.9h3.4v18.9h11.8v3H255.1z"/>
	<path class="st0" d="M278.4,103.8h3.2l8.6,21.9h-3.6l-2.2-6h-8.9l-2.2,6h-3.6L278.4,103.8z M283.5,117.2l-3.5-9.7l-3.5,9.7H283.5z"
		/>
	<path class="st0" d="M297.4,125.8v-21.9H312v3h-11.2v6.6h9.4v2.8h-9.4v9.5H297.4z"/>
	<path class="st0" d="M318.2,103.8h3.2l8.6,21.9h-3.6l-2.2-6h-8.9l-2.2,6h-3.6L318.2,103.8z M323.3,117.2l-3.5-9.7l-3.5,9.7H323.3z"
		/>
	<path class="st0" d="M348.7,120.1c0,1.2-0.3,2.2-0.9,3c-0.6,0.8-1.4,1.5-2.4,1.9c-1,0.5-2.1,0.7-3.4,0.7h-10.5v-21.9h11.2
		c1,0,1.9,0.3,2.7,0.8c0.8,0.5,1.3,1.2,1.7,2.1c0.4,0.9,0.6,1.7,0.6,2.7c0,1-0.3,2-0.8,3c-0.5,0.9-1.3,1.6-2.3,2.1
		c1.3,0.4,2.2,1,3,2S348.7,118.7,348.7,120.1z M335,106.8v6.5h6.5c0.6,0,1.1-0.1,1.6-0.4c0.5-0.3,0.8-0.7,1.1-1.2
		c0.3-0.5,0.4-1.1,0.4-1.7c0-0.6-0.1-1.2-0.4-1.7c-0.2-0.5-0.6-0.9-1-1.2c-0.4-0.3-0.9-0.4-1.5-0.4H335z M345.3,119.5
		c0-0.6-0.1-1.2-0.4-1.7c-0.3-0.5-0.6-0.9-1.1-1.3c-0.5-0.3-1-0.5-1.6-0.5H335v6.8h7.1c0.6,0,1.1-0.2,1.7-0.5
		c0.5-0.3,0.9-0.7,1.2-1.2C345.2,120.6,345.3,120.1,345.3,119.5z"/>
	<path class="st0" d="M351.4,125.8v-21.9h9.5c1,0,1.9,0.2,2.7,0.6c0.8,0.4,1.5,1,2.1,1.6s1.1,1.4,1.4,2.3c0.3,0.8,0.5,1.7,0.5,2.6
		c0,1-0.2,1.9-0.5,2.8c-0.4,0.9-0.9,1.6-1.5,2.3c-0.6,0.6-1.4,1.1-2.3,1.4l5.2,8.3h-3.8l-4.8-7.7h-5.2v7.7H351.4z M354.7,115.1h6.1
		c0.7,0,1.2-0.2,1.7-0.6c0.5-0.4,0.9-0.9,1.2-1.5c0.3-0.6,0.4-1.3,0.4-2.1c0-0.8-0.2-1.5-0.5-2.1c-0.3-0.6-0.8-1.1-1.3-1.5
		c-0.5-0.4-1.1-0.5-1.7-0.5h-5.9V115.1z"/>
	<path class="st0" d="M370.6,125.8v-21.9h3.4v21.9H370.6z"/>
	<path class="st0" d="M387,125.9c-1.5,0-3-0.3-4.2-0.9c-1.3-0.6-2.4-1.5-3.3-2.5c-0.9-1-1.6-2.2-2.1-3.6c-0.5-1.3-0.8-2.7-0.8-4.1
		c0-1.5,0.3-2.9,0.8-4.2c0.5-1.3,1.3-2.5,2.2-3.6c0.9-1,2-1.9,3.3-2.5c1.3-0.6,2.7-0.9,4.2-0.9c1.6,0,3,0.3,4.3,1
		c1.3,0.6,2.4,1.5,3.3,2.6c0.9,1.1,1.6,2.3,2.1,3.6c0.5,1.3,0.7,2.7,0.7,4.1c0,1.4-0.3,2.8-0.8,4.2c-0.5,1.3-1.2,2.5-2.2,3.6
		c-0.9,1-2.1,1.9-3.3,2.5C389.9,125.6,388.5,125.9,387,125.9z M387,122.9c1.1,0,2.1-0.2,3-0.7s1.6-1.1,2.2-1.9
		c0.6-0.8,1.1-1.7,1.4-2.6c0.3-1,0.5-1.9,0.5-2.9c0-1-0.2-2-0.5-3c-0.3-1-0.8-1.8-1.4-2.6c-0.6-0.8-1.4-1.4-2.2-1.8
		c-0.9-0.4-1.8-0.7-2.9-0.7c-1.1,0-2.1,0.2-3,0.7s-1.6,1.1-2.2,1.9c-0.6,0.8-1.1,1.7-1.4,2.6c-0.3,1-0.5,1.9-0.5,2.9
		c0,1,0.2,2,0.5,3c0.3,1,0.8,1.8,1.4,2.6c0.6,0.8,1.4,1.4,2.2,1.8C385,122.7,386,122.9,387,122.9z M387.6,118.2h3.3l6.6,7.6h-3.3
		L387.6,118.2z"/>
	<path class="st0" d="M409.1,125.9c-1.7,0-3.2-0.3-4.4-0.9c-1.2-0.6-2.2-1.4-2.9-2.5c-0.7-1-1.3-2.2-1.6-3.5
		c-0.3-1.3-0.5-2.7-0.5-4.1v-11.1h3.4v11.1c0,1,0.1,2,0.3,2.9c0.2,0.9,0.5,1.8,1,2.5c0.5,0.7,1.1,1.3,1.9,1.8
		c0.8,0.5,1.7,0.7,2.9,0.7c1.2,0,2.1-0.2,2.9-0.7c0.8-0.5,1.4-1.1,1.8-1.8c0.5-0.8,0.8-1.6,1-2.5c0.2-0.9,0.3-1.9,0.3-2.9v-11.1h3.4
		v11.1c0,1.5-0.2,2.9-0.5,4.2c-0.4,1.3-0.9,2.5-1.7,3.5c-0.8,1-1.7,1.8-2.9,2.4C412.3,125.6,410.8,125.9,409.1,125.9z"/>
	<path class="st0" d="M437.2,122.8v3h-15v-21.9h14.7v3h-11.4v6.3h9.8v2.8h-9.8v6.8H437.2z"/>
</g>
<g>
	
		<rect x="25.3" y="79.2" transform="matrix(6.123234e-17 -1 1 6.123234e-17 -53.9027 161.1663)" class="st1" width="56.7" height="56.7"/>
	
		<rect x="138.7" y="22.5" transform="matrix(6.123234e-17 -1 1 6.123234e-17 116.1761 217.8592)" class="st1" width="56.7" height="56.7"/>
	
		<rect x="82" y="135.9" transform="matrix(6.123234e-17 -1 1 6.123234e-17 -53.9026 274.5521)" class="st1" width="56.7" height="56.7"/>
	
		<rect x="25.3" y="22.5" transform="matrix(6.123234e-17 -1 1 6.123234e-17 2.7902 104.4734)" class="st1" width="56.7" height="56.7"/>
	<path class="st1" d="M195.4,22.5v170.1H25.3V22.5H195.4 M195.4,9.5H25.3c-7.2,0-13,5.8-13,13v170.1c0,7.2,5.8,13,13,13h170.1
		c7.2,0,13-5.8,13-13V22.5C208.4,15.3,202.5,9.5,195.4,9.5L195.4,9.5z"/>
</g>
<g>
	<path class="st0" d="M258.2,177.5v15H255v-20.9h2.7l12,15.3v-15.2h3.2v20.9h-2.8L258.2,177.5z"/>
	<path class="st0" d="M285.3,192.6c-1.7,0-3.1-0.3-4.2-0.9c-1.1-0.6-2.1-1.4-2.8-2.3c-0.7-1-1.2-2.1-1.5-3.4
		c-0.3-1.3-0.5-2.6-0.5-3.9v-10.6h3.2v10.6c0,1,0.1,1.9,0.3,2.8c0.2,0.9,0.5,1.7,1,2.4c0.4,0.7,1,1.3,1.8,1.7
		c0.7,0.4,1.7,0.6,2.8,0.6c1.1,0,2-0.2,2.8-0.6c0.7-0.4,1.3-1,1.8-1.7c0.4-0.7,0.7-1.5,0.9-2.4c0.2-0.9,0.3-1.8,0.3-2.8v-10.6h3.2
		v10.6c0,1.4-0.2,2.8-0.5,4c-0.3,1.3-0.9,2.4-1.6,3.3c-0.7,1-1.6,1.7-2.8,2.3C288.3,192.3,286.9,192.6,285.3,192.6z"/>
	<path class="st0" d="M315.4,192.5v-15.1l-6.3,11.5h-1.9l-6.3-11.5v15.1h-3.2v-20.9h3.5l7,12.9l7-12.9h3.5v20.9H315.4z"/>
	<path class="st0" d="M336.7,189.6v2.9h-14.3v-20.9h14.1v2.9h-10.9v6h9.4v2.7h-9.4v6.5H336.7z"/>
	<path class="st0" d="M339.2,192.5v-20.9h9.1c0.9,0,1.8,0.2,2.6,0.6c0.8,0.4,1.5,0.9,2,1.6c0.6,0.6,1,1.4,1.4,2.2
		c0.3,0.8,0.5,1.6,0.5,2.5c0,0.9-0.2,1.8-0.5,2.7c-0.3,0.8-0.8,1.6-1.4,2.2c-0.6,0.6-1.3,1.1-2.2,1.3l5,8h-3.7l-4.5-7.3h-5v7.3
		H339.2z M342.4,182.3h5.8c0.6,0,1.2-0.2,1.7-0.5c0.5-0.4,0.9-0.8,1.1-1.4c0.3-0.6,0.4-1.3,0.4-2c0-0.7-0.2-1.4-0.5-2
		c-0.3-0.6-0.7-1.1-1.2-1.4c-0.5-0.3-1.1-0.5-1.7-0.5h-5.7V182.3z"/>
	<path class="st0" d="M357.6,192.5v-20.9h3.2v20.9H357.6z"/>
	<path class="st0" d="M373.2,192.6c-1.5,0-2.8-0.3-4-0.9c-1.2-0.6-2.3-1.4-3.2-2.4c-0.9-1-1.6-2.1-2.1-3.4c-0.5-1.3-0.7-2.6-0.7-3.9
		c0-1.4,0.3-2.7,0.8-4c0.5-1.3,1.2-2.4,2.1-3.4c0.9-1,2-1.8,3.2-2.4c1.2-0.6,2.6-0.9,4-0.9c1.5,0,2.9,0.3,4.1,0.9
		c1.2,0.6,2.3,1.4,3.1,2.4c0.9,1,1.5,2.2,2,3.4c0.5,1.3,0.7,2.6,0.7,3.9c0,1.4-0.2,2.7-0.7,4c-0.5,1.3-1.2,2.4-2.1,3.4
		c-0.9,1-2,1.8-3.2,2.3C376,192.3,374.6,192.6,373.2,192.6z M373.3,189.7c1.1,0,2-0.2,2.8-0.7c0.8-0.4,1.5-1,2.1-1.8
		c0.6-0.7,1-1.6,1.3-2.5c0.3-0.9,0.5-1.8,0.5-2.8c0-1-0.2-1.9-0.5-2.9c-0.3-0.9-0.8-1.8-1.4-2.5c-0.6-0.7-1.3-1.3-2.1-1.7
		c-0.8-0.4-1.7-0.6-2.7-0.6c-1.1,0-2,0.2-2.8,0.7c-0.8,0.4-1.5,1-2.1,1.8c-0.6,0.7-1,1.6-1.3,2.5s-0.5,1.8-0.5,2.8
		c0,1,0.2,1.9,0.5,2.9c0.3,0.9,0.8,1.8,1.4,2.5c0.6,0.7,1.3,1.3,2.1,1.7C371.3,189.5,372.2,189.7,373.3,189.7z M373.8,185.2h3.1
		l6.3,7.2H380L373.8,185.2z"/>
	<path class="st0" d="M394.3,192.6c-1.7,0-3.1-0.3-4.2-0.9c-1.1-0.6-2.1-1.4-2.8-2.3c-0.7-1-1.2-2.1-1.5-3.4
		c-0.3-1.3-0.5-2.6-0.5-3.9v-10.6h3.2v10.6c0,1,0.1,1.9,0.3,2.8c0.2,0.9,0.5,1.7,1,2.4c0.4,0.7,1,1.3,1.8,1.7
		c0.7,0.4,1.7,0.6,2.8,0.6c1.1,0,2-0.2,2.8-0.6c0.7-0.4,1.3-1,1.8-1.7c0.4-0.7,0.7-1.5,0.9-2.4c0.2-0.9,0.3-1.8,0.3-2.8v-10.6h3.2
		v10.6c0,1.4-0.2,2.8-0.5,4c-0.3,1.3-0.9,2.4-1.6,3.3c-0.7,1-1.6,1.7-2.8,2.3C397.4,192.3,396,192.6,394.3,192.6z"/>
	<path class="st0" d="M421.2,189.6v2.9h-14.3v-20.9h14.1v2.9H410v6h9.4v2.7H410v6.5H421.2z"/>
	<path class="st0" d="M435.9,176.4c-0.2-0.2-0.5-0.4-0.9-0.7c-0.4-0.2-0.8-0.5-1.3-0.7c-0.5-0.2-1-0.4-1.6-0.5
		c-0.6-0.1-1.2-0.2-1.8-0.2c-1.4,0-2.5,0.3-3.1,0.8c-0.7,0.5-1,1.2-1,2.2c0,0.7,0.2,1.2,0.6,1.6s1,0.7,1.7,1
		c0.8,0.3,1.7,0.5,2.9,0.8c1.4,0.3,2.7,0.7,3.7,1.2s1.8,1.1,2.4,1.8c0.6,0.8,0.8,1.8,0.8,3c0,1.1-0.2,2-0.6,2.7
		c-0.4,0.8-0.9,1.4-1.7,1.8s-1.5,0.8-2.4,1.1c-0.9,0.2-1.9,0.4-3,0.4c-1,0-2.1-0.1-3.1-0.4c-1-0.2-2-0.6-2.9-1s-1.8-0.9-2.6-1.5
		l1.5-2.8c0.3,0.3,0.6,0.6,1.1,0.9c0.5,0.3,1,0.6,1.7,0.9c0.6,0.3,1.3,0.5,2.1,0.7c0.8,0.2,1.5,0.3,2.3,0.3c1.3,0,2.4-0.2,3.1-0.7
		c0.7-0.5,1.1-1.2,1.1-2c0-0.7-0.2-1.3-0.7-1.7c-0.5-0.4-1.1-0.8-2-1.1c-0.9-0.3-1.9-0.6-3.1-0.9c-1.4-0.4-2.5-0.8-3.5-1.2
		s-1.6-1-2.1-1.7s-0.7-1.6-0.7-2.7c0-1.4,0.3-2.5,1-3.5c0.7-0.9,1.6-1.7,2.7-2.1c1.2-0.5,2.4-0.7,3.9-0.7c0.9,0,1.8,0.1,2.7,0.3
		c0.8,0.2,1.6,0.5,2.4,0.8c0.7,0.4,1.4,0.8,2,1.2L435.9,176.4z"/>
</g>
<g>
	<path class="st0" d="M255,163.5v-29.3h10.3c3.2,0,5.8,0.7,7.9,2c2.1,1.3,3.7,3.1,4.8,5.3c1,2.2,1.6,4.7,1.6,7.4
		c0,3-0.6,5.6-1.7,7.8c-1.2,2.2-2.8,3.9-5,5.1c-2.1,1.2-4.7,1.8-7.6,1.8H255z M275,148.8c0-2.1-0.4-3.9-1.1-5.5
		c-0.8-1.6-1.8-2.8-3.3-3.8c-1.4-0.9-3.2-1.4-5.3-1.4h-5.8v21.3h5.8c2.1,0,3.9-0.5,5.3-1.4c1.4-0.9,2.5-2.2,3.3-3.8
		C274.7,152.6,275,150.8,275,148.8z"/>
	<path class="st0" d="M279.7,143.3l0.9-4.9h-1.4v-5h4.3v5.1l-1.3,4.9H279.7z"/>
	<path class="st0" d="M299.8,163.7c-2.3,0-4.3-0.4-5.9-1.2c-1.6-0.8-2.9-1.9-3.9-3.3c-1-1.4-1.7-3-2.2-4.7c-0.5-1.8-0.7-3.6-0.7-5.4
		v-14.9h4.5V149c0,1.3,0.1,2.7,0.4,3.9c0.3,1.3,0.7,2.4,1.3,3.4c0.6,1,1.4,1.8,2.5,2.4c1,0.6,2.3,0.9,3.9,0.9c1.6,0,2.9-0.3,3.9-0.9
		c1-0.6,1.8-1.4,2.5-2.4c0.6-1,1-2.1,1.3-3.4c0.3-1.3,0.4-2.6,0.4-3.9v-14.9h4.5V149c0,2-0.2,3.9-0.7,5.7c-0.5,1.8-1.2,3.3-2.2,4.7
		c-1,1.3-2.3,2.4-3.9,3.2C304,163.3,302,163.7,299.8,163.7z"/>
	<path class="st0" d="M334.5,141c-0.2-0.3-0.6-0.6-1.2-1c-0.6-0.3-1.2-0.7-1.9-1c-0.7-0.3-1.5-0.6-2.3-0.8c-0.8-0.2-1.7-0.3-2.6-0.3
		c-2,0-3.4,0.4-4.4,1.1c-0.9,0.7-1.4,1.7-1.4,3.1c0,0.9,0.3,1.7,0.8,2.2c0.5,0.5,1.3,1,2.4,1.4c1.1,0.4,2.4,0.7,4,1.2
		c2,0.5,3.7,1,5.2,1.7c1.5,0.6,2.6,1.5,3.4,2.5c0.8,1.1,1.2,2.5,1.2,4.3c0,1.5-0.3,2.7-0.8,3.8c-0.6,1.1-1.3,1.9-2.3,2.6
		c-1,0.7-2.1,1.2-3.4,1.5c-1.3,0.3-2.7,0.5-4.2,0.5c-1.5,0-2.9-0.2-4.3-0.5c-1.4-0.3-2.8-0.8-4.1-1.4c-1.3-0.6-2.5-1.3-3.6-2.1
		l2.1-3.9c0.4,0.4,0.9,0.8,1.5,1.2c0.7,0.4,1.5,0.8,2.4,1.2c0.9,0.4,1.9,0.7,2.9,1c1.1,0.3,2.1,0.4,3.2,0.4c1.9,0,3.3-0.3,4.3-1
		c1-0.7,1.5-1.6,1.5-2.9c0-1-0.3-1.8-0.9-2.4s-1.6-1.1-2.8-1.5c-1.2-0.4-2.7-0.8-4.4-1.3c-1.9-0.5-3.5-1.1-4.8-1.7
		c-1.3-0.6-2.3-1.4-2.9-2.4s-1-2.2-1-3.7c0-1.9,0.5-3.5,1.4-4.8c0.9-1.3,2.2-2.3,3.8-3s3.4-1,5.4-1c1.3,0,2.6,0.1,3.8,0.4
		c1.2,0.3,2.3,0.7,3.3,1.2c1,0.5,2,1.1,2.8,1.7L334.5,141z"/>
	<path class="st0" d="M348.8,134.2h4.2l11.5,29.3h-4.8l-2.9-8H345l-2.9,8h-4.7L348.8,134.2z M355.7,152.1l-4.7-12.9l-4.7,12.9H355.7
		z"/>
	<path class="st0" d="M377.5,163.7c-1.9,0-3.7-0.4-5.4-1.2c-1.7-0.8-3.1-1.9-4.4-3.3c-1.3-1.4-2.2-3-2.9-4.8
		c-0.7-1.8-1.1-3.7-1.1-5.7c0-2,0.4-3.9,1.1-5.6c0.7-1.8,1.7-3.3,2.9-4.7c1.3-1.4,2.7-2.4,4.4-3.2c1.7-0.8,3.5-1.2,5.5-1.2
		c2.8,0,5.2,0.6,7.1,1.8c1.9,1.2,3.3,2.7,4.3,4.6l-3.4,2.5c-0.8-1.6-1.9-2.8-3.4-3.6c-1.4-0.8-3-1.2-4.6-1.2c-1.4,0-2.7,0.3-3.8,0.9
		c-1.1,0.6-2.1,1.4-2.9,2.4c-0.8,1-1.5,2.2-1.9,3.4c-0.4,1.3-0.6,2.7-0.6,4.1c0,1.5,0.2,2.9,0.7,4.2c0.5,1.3,1.2,2.4,2,3.4
		c0.9,1,1.9,1.8,3,2.3c1.2,0.6,2.4,0.9,3.8,0.9c1.6,0,3.2-0.4,4.6-1.2c1.5-0.8,2.8-2.1,4-3.7v4.6C384,162.2,381,163.7,377.5,163.7z
		 M386.2,152H380v-3.4h9.9v14.8h-3.8V152z"/>
	<path class="st0" d="M413.9,159.5v4h-20.1v-29.3h19.7v4h-15.2v8.5h13.2v3.8h-13.2v9.1H413.9z"/>
	<path class="st0" d="M434.6,141c-0.2-0.3-0.6-0.6-1.2-1c-0.6-0.3-1.2-0.7-1.9-1c-0.7-0.3-1.5-0.6-2.3-0.8c-0.8-0.2-1.7-0.3-2.6-0.3
		c-2,0-3.4,0.4-4.4,1.1c-0.9,0.7-1.4,1.7-1.4,3.1c0,0.9,0.3,1.7,0.8,2.2c0.5,0.5,1.3,1,2.4,1.4c1.1,0.4,2.4,0.7,4,1.2
		c2,0.5,3.7,1,5.2,1.7c1.5,0.6,2.6,1.5,3.4,2.5c0.8,1.1,1.2,2.5,1.2,4.3c0,1.5-0.3,2.7-0.8,3.8c-0.6,1.1-1.3,1.9-2.3,2.6
		c-1,0.7-2.1,1.2-3.4,1.5c-1.3,0.3-2.7,0.5-4.2,0.5c-1.5,0-2.9-0.2-4.3-0.5c-1.4-0.3-2.8-0.8-4.1-1.4c-1.3-0.6-2.5-1.3-3.6-2.1
		l2.1-3.9c0.4,0.4,0.9,0.8,1.5,1.2c0.7,0.4,1.5,0.8,2.4,1.2c0.9,0.4,1.9,0.7,2.9,1c1.1,0.3,2.1,0.4,3.2,0.4c1.9,0,3.3-0.3,4.3-1
		c1-0.7,1.5-1.6,1.5-2.9c0-1-0.3-1.8-0.9-2.4s-1.6-1.1-2.8-1.5c-1.2-0.4-2.7-0.8-4.4-1.3c-1.9-0.5-3.5-1.1-4.8-1.7
		c-1.3-0.6-2.3-1.4-2.9-2.4s-1-2.2-1-3.7c0-1.9,0.5-3.5,1.4-4.8c0.9-1.3,2.2-2.3,3.8-3s3.4-1,5.4-1c1.3,0,2.6,0.1,3.8,0.4
		c1.2,0.3,2.3,0.7,3.3,1.2c1,0.5,2,1.1,2.8,1.7L434.6,141z"/>
</g>
<g>
	<path class="st0" d="M255.7,91.9V22.4h46.1v9.5h-35.4v21.1h29.8v8.8h-29.8v30.2H255.7z"/>
	<path class="st0" d="M337.8,92.4c-5.5,0-10.2-0.9-14-2.8c-3.8-1.9-6.9-4.5-9.2-7.8c-2.3-3.3-4.1-7-5.1-11.2
		c-1.1-4.2-1.6-8.5-1.6-12.9V22.4h10.8v35.3c0,3.2,0.3,6.3,1,9.3c0.7,3,1.7,5.7,3.2,8c1.5,2.4,3.4,4.2,5.9,5.7
		c2.4,1.4,5.5,2.2,9.2,2.2c3.7,0,6.8-0.7,9.3-2.2c2.4-1.4,4.4-3.3,5.8-5.7c1.4-2.4,2.5-5.1,3.1-8.1c0.7-3,1-6.1,1-9.2V22.4h10.8
		v35.3c0,4.8-0.6,9.2-1.7,13.4c-1.1,4.2-2.9,7.9-5.2,11.1c-2.4,3.2-5.5,5.7-9.3,7.5C347.9,91.5,343.3,92.4,337.8,92.4z"/>
	<path class="st0" d="M389.9,42.3v49.6h-10.7V22.4h8.8l39.8,50.7V22.5h10.7v69.4h-9.3L389.9,42.3z"/>
</g>
<g>
	<path class="st0" d="M255.1,125.8v-21.9h3.4v18.9h11.8v3H255.1z"/>
	<path class="st0" d="M278.4,103.8h3.2l8.6,21.9h-3.6l-2.2-6h-8.9l-2.2,6h-3.6L278.4,103.8z M283.5,117.2l-3.5-9.7l-3.5,9.7H283.5z"
		/>
	<path class="st0" d="M297.4,125.8v-21.9H312v3h-11.2v6.6h9.4v2.8h-9.4v9.5H297.4z"/>
	<path class="st0" d="M318.2,103.8h3.2l8.6,21.9h-3.6l-2.2-6h-8.9l-2.2,6h-3.6L318.2,103.8z M323.3,117.2l-3.5-9.7l-3.5,9.7H323.3z"
		/>
	<path class="st0" d="M348.7,120.1c0,1.2-0.3,2.2-0.9,3c-0.6,0.8-1.4,1.5-2.4,1.9c-1,0.5-2.1,0.7-3.4,0.7h-10.5v-21.9h11.2
		c1,0,1.9,0.3,2.7,0.8c0.8,0.5,1.3,1.2,1.7,2.1c0.4,0.9,0.6,1.7,0.6,2.7c0,1-0.3,2-0.8,3c-0.5,0.9-1.3,1.6-2.3,2.1
		c1.3,0.4,2.2,1,3,2S348.7,118.7,348.7,120.1z M335,106.8v6.5h6.5c0.6,0,1.1-0.1,1.6-0.4c0.5-0.3,0.8-0.7,1.1-1.2
		c0.3-0.5,0.4-1.1,0.4-1.7c0-0.6-0.1-1.2-0.4-1.7c-0.2-0.5-0.6-0.9-1-1.2c-0.4-0.3-0.9-0.4-1.5-0.4H335z M345.3,119.5
		c0-0.6-0.1-1.2-0.4-1.7c-0.3-0.5-0.6-0.9-1.1-1.3c-0.5-0.3-1-0.5-1.6-0.5H335v6.8h7.1c0.6,0,1.1-0.2,1.7-0.5
		c0.5-0.3,0.9-0.7,1.2-1.2C345.2,120.6,345.3,120.1,345.3,119.5z"/>
	<path class="st0" d="M351.4,125.8v-21.9h9.5c1,0,1.9,0.2,2.7,0.6c0.8,0.4,1.5,1,2.1,1.6s1.1,1.4,1.4,2.3c0.3,0.8,0.5,1.7,0.5,2.6
		c0,1-0.2,1.9-0.5,2.8c-0.4,0.9-0.9,1.6-1.5,2.3c-0.6,0.6-1.4,1.1-2.3,1.4l5.2,8.3h-3.8l-4.8-7.7h-5.2v7.7H351.4z M354.7,115.1h6.1
		c0.7,0,1.2-0.2,1.7-0.6c0.5-0.4,0.9-0.9,1.2-1.5c0.3-0.6,0.4-1.3,0.4-2.1c0-0.8-0.2-1.5-0.5-2.1c-0.3-0.6-0.8-1.1-1.3-1.5
		c-0.5-0.4-1.1-0.5-1.7-0.5h-5.9V115.1z"/>
	<path class="st0" d="M370.6,125.8v-21.9h3.4v21.9H370.6z"/>
	<path class="st0" d="M387,125.9c-1.5,0-3-0.3-4.2-0.9c-1.3-0.6-2.4-1.5-3.3-2.5c-0.9-1-1.6-2.2-2.1-3.6c-0.5-1.3-0.8-2.7-0.8-4.1
		c0-1.5,0.3-2.9,0.8-4.2c0.5-1.3,1.3-2.5,2.2-3.6c0.9-1,2-1.9,3.3-2.5c1.3-0.6,2.7-0.9,4.2-0.9c1.6,0,3,0.3,4.3,1
		c1.3,0.6,2.4,1.5,3.3,2.6c0.9,1.1,1.6,2.3,2.1,3.6c0.5,1.3,0.7,2.7,0.7,4.1c0,1.4-0.3,2.8-0.8,4.2c-0.5,1.3-1.2,2.5-2.2,3.6
		c-0.9,1-2.1,1.9-3.3,2.5C389.9,125.6,388.5,125.9,387,125.9z M387,122.9c1.1,0,2.1-0.2,3-0.7s1.6-1.1,2.2-1.9
		c0.6-0.8,1.1-1.7,1.4-2.6c0.3-1,0.5-1.9,0.5-2.9c0-1-0.2-2-0.5-3c-0.3-1-0.8-1.8-1.4-2.6c-0.6-0.8-1.4-1.4-2.2-1.8
		c-0.9-0.4-1.8-0.7-2.9-0.7c-1.1,0-2.1,0.2-3,0.7s-1.6,1.1-2.2,1.9c-0.6,0.8-1.1,1.7-1.4,2.6c-0.3,1-0.5,1.9-0.5,2.9
		c0,1,0.2,2,0.5,3c0.3,1,0.8,1.8,1.4,2.6c0.6,0.8,1.4,1.4,2.2,1.8C385,122.7,386,122.9,387,122.9z M387.6,118.2h3.3l6.6,7.6h-3.3
		L387.6,118.2z"/>
	<path class="st0" d="M409.1,125.9c-1.7,0-3.2-0.3-4.4-0.9c-1.2-0.6-2.2-1.4-2.9-2.5c-0.7-1-1.3-2.2-1.6-3.5
		c-0.3-1.3-0.5-2.7-0.5-4.1v-11.1h3.4v11.1c0,1,0.1,2,0.3,2.9c0.2,0.9,0.5,1.8,1,2.5c0.5,0.7,1.1,1.3,1.9,1.8
		c0.8,0.5,1.7,0.7,2.9,0.7c1.2,0,2.1-0.2,2.9-0.7c0.8-0.5,1.4-1.1,1.8-1.8c0.5-0.8,0.8-1.6,1-2.5c0.2-0.9,0.3-1.9,0.3-2.9v-11.1h3.4
		v11.1c0,1.5-0.2,2.9-0.5,4.2c-0.4,1.3-0.9,2.5-1.7,3.5c-0.8,1-1.7,1.8-2.9,2.4C412.3,125.6,410.8,125.9,409.1,125.9z"/>
	<path class="st0" d="M437.2,122.8v3h-15v-21.9h14.7v3h-11.4v6.3h9.8v2.8h-9.8v6.8H437.2z"/>
</g>
<g>
	
		<rect x="25.3" y="79.2" transform="matrix(6.123234e-17 -1 1 6.123234e-17 -53.9027 161.1663)" class="st1" width="56.7" height="56.7"/>
	
		<rect x="138.7" y="22.5" transform="matrix(6.123234e-17 -1 1 6.123234e-17 116.1761 217.8592)" class="st1" width="56.7" height="56.7"/>
	
		<rect x="82" y="135.9" transform="matrix(6.123234e-17 -1 1 6.123234e-17 -53.9026 274.5521)" class="st1" width="56.7" height="56.7"/>
	
		<rect x="25.3" y="22.5" transform="matrix(6.123234e-17 -1 1 6.123234e-17 2.7902 104.4734)" class="st1" width="56.7" height="56.7"/>
	<path class="st1" d="M195.4,22.5v170.1H25.3V22.5H195.4 M195.4,9.5H25.3c-7.2,0-13,5.8-13,13v170.1c0,7.2,5.8,13,13,13h170.1
		c7.2,0,13-5.8,13-13V22.5C208.4,15.3,202.5,9.5,195.4,9.5L195.4,9.5z"/>
</g>
</svg>
