<?xml version="1.0" encoding="utf-8"?>
<!-- Generator: Adobe Illustrator 24.0.2, SVG Export Plug-In . SVG Version: 6.00 Build 0)  -->
<svg version="1.1" id="Calque_1" xmlns="http://www.w3.org/2000/svg" xmlns:xlink="http://www.w3.org/1999/xlink" x="0px" y="0px"
	 viewBox="0 0 196.1 196.1" style="enable-background:new 0 0 196.1 196.1;" xml:space="preserve">
<style type="text/css">
	.st0{fill:#73C7D3;}
</style>
<g>
	
		<rect x="13" y="69.7" transform="matrix(6.123234e-17 -1 1 6.123234e-17 -56.6931 139.386)" class="st0" width="56.7" height="56.7"/>
	
		<rect x="126.4" y="13" transform="matrix(6.123234e-17 -1 1 6.123234e-17 113.3856 196.0789)" class="st0" width="56.7" height="56.7"/>
	
		<rect x="69.7" y="126.4" transform="matrix(6.123234e-17 -1 1 6.123234e-17 -56.6931 252.7718)" class="st0" width="56.7" height="56.7"/>
	
		<rect x="13" y="13" transform="matrix(6.123234e-17 -1 1 6.123234e-17 -1.885960e-04 82.6931)" class="st0" width="56.7" height="56.7"/>
	<path class="st0" d="M183.1,13v170.1H13V13H183.1 M183.1,0H13C5.8,0,0,5.8,0,13v170.1c0,7.2,5.8,13,13,13h170.1c7.2,0,13-5.8,13-13
		V13C196.1,5.8,190.3,0,183.1,0L183.1,0z"/>
</g>
<g>
	
		<rect x="13" y="69.7" transform="matrix(6.123234e-17 -1 1 6.123234e-17 -56.6931 139.386)" class="st0" width="56.7" height="56.7"/>
	
		<rect x="126.4" y="13" transform="matrix(6.123234e-17 -1 1 6.123234e-17 113.3856 196.0789)" class="st0" width="56.7" height="56.7"/>
	
		<rect x="69.7" y="126.4" transform="matrix(6.123234e-17 -1 1 6.123234e-17 -56.6931 252.7718)" class="st0" width="56.7" height="56.7"/>
	
		<rect x="13" y="13" transform="matrix(6.123234e-17 -1 1 6.123234e-17 -1.885960e-04 82.6931)" class="st0" width="56.7" height="56.7"/>
	<path class="st0" d="M183.1,13v170.1H13V13H183.1 M183.1,0H13C5.8,0,0,5.8,0,13v170.1c0,7.2,5.8,13,13,13h170.1c7.2,0,13-5.8,13-13
		V13C196.1,5.8,190.3,0,183.1,0L183.1,0z"/>
</g>
</svg>
